/* XPM */
static char *d6d9c959e0464dbcf4c230a095497cc5Jhhv3k7bkfkhUwhf[] = {
/* columns rows colors chars-per-pixel */
"80 96 163 2 ",
"   c None",
".  c #2E2B2D",
"X  c #3A2524",
"o  c #3B2A26",
"O  c #3B2728",
"+  c #342D2D",
"@  c #3C2C2C",
"#  c #35312C",
"$  c #3C302E",
"%  c #332D32",
"&  c #3F2F31",
"*  c #353235",
"=  c #3A3334",
"-  c #3E3834",
";  c #3D353A",
":  c #3C383C",
">  c #402727",
",  c #4D2727",
"<  c #412927",
"1  c #422D2D",
"2  c #4A2D2C",
"3  c #542C2D",
"4  c #5B2D2E",
"5  c #43302E",
"6  c #4A302E",
"7  c #432E32",
"8  c #4B2E31",
"9  c #522E31",
"0  c #5A2E31",
"q  c #443233",
"w  c #4C3334",
"e  c #453439",
"r  c #4C3438",
"t  c #433B39",
"y  c #4C3A3C",
"u  c #533335",
"i  c #5B3334",
"p  c #523936",
"a  c #523538",
"s  c #5D363A",
"d  c #533A3B",
"f  c #5D3A3D",
"g  c #722F2D",
"h  c #642F33",
"j  c #6E2F35",
"k  c #782F36",
"l  c #792C38",
"z  c #643236",
"x  c #6C3236",
"c  c #643639",
"v  c #6B343A",
"b  c #6C383D",
"n  c #733136",
"m  c #7C3334",
"M  c #73343A",
"N  c #7B343C",
"B  c #723C3F",
"V  c #55423F",
"C  c #59403F",
"Z  c #3E3D45",
"A  c #4C3E41",
"S  c #543E40",
"D  c #5E3E42",
"F  c #623C41",
"G  c #6D3B40",
"H  c #723740",
"J  c #7B3643",
"K  c #743A45",
"L  c #7A3A46",
"P  c #454042",
"I  c #4B4443",
"U  c #444149",
"Y  c #544342",
"T  c #5D4444",
"R  c #5F4847",
"E  c #544749",
"W  c #554B4D",
"Q  c #5D4849",
"!  c #5F504E",
"~  c #634245",
"^  c #694042",
"/  c #6F4649",
"(  c #634D4C",
")  c #724342",
"_  c #7C4147",
"`  c #61504E",
"'  c #655454",
"]  c #695353",
"[  c #6E5956",
"{  c #705654",
"}  c #735C5B",
"|  c #75625E",
" . c #6F6564",
".. c #67636E",
"X. c #7C6564",
"o. c #786863",
"O. c #892F30",
"+. c #902F39",
"@. c #833435",
"#. c #8E3032",
"$. c #84343B",
"%. c #8B333C",
"&. c #80383F",
"*. c #81393F",
"=. c #90373F",
"-. c #94333C",
";. c #9B343C",
":. c #A4363F",
">. c #863741",
",. c #8A3740",
"<. c #863A42",
"1. c #853C43",
"2. c #833A45",
"3. c #8B3942",
"4. c #973444",
"5. c #963641",
"6. c #9D3643",
"7. c #933944",
"8. c #9D3847",
"9. c #9C3A45",
"0. c #A43743",
"q. c #AD3744",
"w. c #A03C44",
"e. c #A53844",
"r. c #AC3844",
"t. c #A0394B",
"y. c #A83B4A",
"u. c #B43B47",
"i. c #BF3A47",
"p. c #BC3B4A",
"a. c #AA3B50",
"s. c #C13C4B",
"d. c #CB3C4E",
"f. c #BC404C",
"g. c #BA414C",
"h. c #BD4754",
"j. c #BB4657",
"k. c #806263",
"l. c #836A6A",
"z. c #8B7372",
"x. c #947371",
"c. c #967975",
"v. c #C24555",
"b. c #CE4554",
"n. c #CB4558",
"m. c #D14456",
"M. c #D84357",
"N. c #D24857",
"B. c #D9495E",
"V. c #E0475B",
"C. c #E54A5F",
"Z. c #ED4E62",
"A. c #F24D64",
"S. c #E35260",
"D. c #F35166",
"F. c #F65A6E",
"G. c #F85C70",
"H. c #777585",
"J. c #B9908E",
"K. c #BCA7A5",
"L. c #C0A7A7",
"P. c #D0ACAE",
"I. c #E3C1BD",
/* pixels */
"                                                                                                                                                                ",
"                                                                                                                                                                ",
"                                                                                                                                                                ",
"                                                                                                                                                                ",
"                                                                                                                                                                ",
"                                                                                                                                                                ",
"                                                                                                                                                                ",
"                                                                                                                                                                ",
"                                                                                                                                                                ",
"                                                                                + + + + + + + Y Y                                                               ",
"                                                                                + + + + + + + I Y                                                               ",
"                                                                  % % % % % . . . . + + + + + y A e e $ $ $ Q Q                                                 ",
"                                                                  % % % % % . . . . + % % % + y A e e $ $ $ Q Q                                                 ",
"                                                              % % % % % % % % % % % * * ; ; ; e e Y Y ` ` ` K.K.| | ] ]                                         ",
"                                                              % % % % % % % % % % % * * ; ; ; e e Y Y ` ` ` K.K.| | ] ]                                         ",
"                                                              % % % % % % % % % % % * * ; ; ; e - Y Y ` ` ` K.K.| | ] ]                                         ",
"                                                              = = * * * * * * * * * ; ; ; : : - - q q w w w P.P.} } { {                                         ",
"                                                              = = * * * * * * * * * ; ; ; : : - - q q e w w P.P.} } { {                                         ",
"                                            w w w } } Y Y y y e w u w w w w u u c c c c c c c u u y y f f f _ _ x.x.X.X.} } }                                   ",
"                                            w w w } } Y Y y y e w u w w w w u u c c c c c c c u u y y f f f _ _ x.x.X.X.} } }                                   ",
"                                            u u u ~ ~ d d a a p p c c c v v M M x x v v v b b q q e e r r w f f k.k.l.l.X.X.X.Y Y                               ",
"                                            u u u ~ ~ d d a a p a c c c v v M M x x v v v b b q q e e r r r f f k.k.l.l.X.X.X.Y Y                               ",
"                                        r r w w 6 b G c c s c z z z z z z z >.>.<.<.4 4 4 3 3 = = = = * * * = = A A } } X.X.X.[ [                               ",
"                                        r r w w w G G c s s c z z z z z z z >.>.<.<.0 4 4 3 3 = = = = * * * = = A A } } X.X.X.[ [                               ",
"                                        r r w w w G G c c s s z z z z z z z &.&.<.<.4 4 4 3 3 = = = = * * * * * A A } } X.X.X.[ [                               ",
"                                        a a u u u v v L L K K z z 0 0 0 i i M M b b i i i 0 0 9 9 d d y y y : : : : ! ! } } } } } ( (                           ",
"                                        a a u u u v v L L K K z z 0 0 0 i i M M b b i i i 0 0 9 9 d d y y y : : : : ! ! } } } } } ( (                           ",
"                                    q q w w u u u K K d d i i n n c c c x x n n c c z z z z z v v F F S S S P P U U A A V V V X.X.] ]                           ",
"                                    q q w w u u u K K d d i i n n c c c x x n x c c z z z z z v v F F S S S P P U U A A V V V X.X.] ]                           ",
"                                    q q q q u u u D D q q a a n n x x x x x B B ) ) z z z h h u u a a y y y ; ; * * y y d d d d d V V                           ",
"                                    q q q q u u u D D q q a a n n x c x c x B B ) ) z z z h h u u a a y y y ; ; * * y y d d d d d V V                           ",
"                                    & & 7 7 f f f = = # # r r x x h h h z h v v 1.1.M M M M M 6 6 @ @ @ @ @ . . t t o.o.| | | o o o o q q                       ",
"                                    & & 7 7 f f f = = # # r r x x h h h h h v v 1.1.M M M M M 6 6 @ @ @ @ @ . . t t o.o.| | | o o o o 5 5                       ",
"                                7 7 8 7 8 8 w u w ; ; e e 6 6 x x n n n k k %.%.4.4.$.$.N N N v v z z c c c + + A A ( ( z.z.z.( ( 2 2                           ",
"                                7 7 7 7 8 8 u u w ; ; e e 6 q x x n n n k k %.%.4.4.N N N N N v v z z c c c + + A A ( ( z.z.z.( ( 2 6                           ",
"                                7 7 7 7 8 8 u u w ; ; e e q q x x n n n k k %.%.4.4.N N N N N v v z z c c c @ + A A ( ( z.z.z.( ( 6 6                           ",
"                                7 7 7 7 7 7 w w w e e e e w w M M @.@.@.$.$.8.8.8.8.M M M n n N N x x v v v @ @ y y Q Q X.X.X.R R 2 2                           ",
"                                7 7 7 7 7 7 w w w e e e e w w M M @.@.@.$.$.8.8.8.8.M M M n n N N x x v v v @ @ y y Q Q X.X.X.R R 2 2                           ",
"                                e e 7 7 = = = = = r r d d s s 3.3.f.p.f.v.v.B.B.h.h.m m m g g w.w.=.=.&.N N @ @ - - y y Y Y Y y y q q                           ",
"                                e e 7 7 = = = = = r r d d s s 3.3.f.p.p.v.v.B.B.h.h.m m m g g w.w.=.=.N N N @ @ - - y y Y Y Y y y q q                           ",
"                                w w 7 7 7 7 r r r r r r r v b v.v.Z.Z.Z.Z.Z.M.M.s.s.5.5.5.%.%.m m @.@.m m m 1 1 = = e e e w w = = $ $ w w                       ",
"                                w w 7 7 7 7 r r r r r r r v b v.v.Z.Z.Z.Z.Z.M.M.s.s.5.5.5.%.%.m m @.@.m m m 1 1 = = e e e w w = = $ $ q w                       ",
"                                7 7 @ @ @ @ a a a 8 8 3.3.j.j.A.A.A.A.A.A.A.V.V.6.6.2 2 2 1 1 u u m m m m m x x = = W W ' ' ' # # $ $ q q                       ",
"                                7 7 @ @ @ @ a a a 8 8 3.3.j.j.A.A.A.A.A.A.A.V.V.6.6.2 2 2 1 1 u u m m m m m x x = = W W ' ' ' # # $ $ q q                       ",
"                                7 7 @ @ @ @ a a a 8 8 3.3.j.j.A.A.A.A.A.A.A.V.V.6.6.2 2 2 1 1 u u m m m m m x x = = W W ' ' ' # # $ $ q q                       ",
"                                1 1 @ @ 1 1 f f f 0 0 7.7.v.v.D.D.A.A.A.A.A.C.C.8.8.9 9 9 8 8 u u m m @.@.@.h h = = E E ' ' ' t t e e r r                       ",
"                                1 1 @ @ 1 1 f f f 0 0 7.7.v.v.D.D.A.A.A.A.A.C.C.8.8.9 9 9 8 8 u u m m @.@.@.h h = = E E ' ' ' t t e e r r                       ",
"                                @ @ @ @ 8 8 2.2.2.&.&.-.-.g.g.S.S.G.G.G.F.F.n.n.>.>.p p p p i M M m m &.@.@.4 4 r r y y T T T ( ( ' '                           ",
"                                @ @ & & 8 8 2.2.2.&.&.-.-.g.g.S.S.G.G.G.F.F.n.n.>.>.i i p p p M M m m @.&.&.4 4 r r y y T T T ( ( ' '                           ",
"                                @ @ 7 7 q q c c c M M %.%.0.0.u.u.N.N.N.b.b.-.-.b v n n v M M $.$.n n x x x ^ ^ F F f f s s s a a T T                           ",
"                                @ @ 7 7 7 q c c c M M %.%.0.0.u.u.N.N.N.b.b.-.-.b b M M M M M $.%.n n x x x ^ ^ F F f f s s s a a T T                           ",
"                                @ @ 7 7 q q p p p n n 5.5.:.:.:.:.s.s.s.i.i.+.+.b b N N N $.$.%.%.n n x x x / / ~ ~ F F f f f d d p p                           ",
"                                @ @ q 7 q q p p p n n 5.5.:.:.:.:.s.s.s.s.s.+.+.b b N N N $.$.%.%.n n x x x / / ~ ~ F F f f f d d p p                           ",
"                                @ @ q 7 q q p p p n n 5.5.:.:.:.:.s.s.s.s.s.+.+.b b N N N $.$.%.%.n n x x x / / ~ ~ F F f f f d d p p                           ",
"                                7 7 e e 8 8 h h h z z n n @.@.;.;.O.O.O.#.#.u.u.%.%.t.8.t.a.a.x x i i i i i s s d d w w q q q 5 5                               ",
"                                7 7 e e 8 8 h h h z z n n @.@.;.;.O.O.O.#.#.u.u.%.%.t.t.t.a.a.x x i i i i i s s d d w w q q q 1 5                               ",
"                                    W W I I & & & 0 3 x j j j M M %.%.%.-.-.m.m.6.6.$.$.$.,.,.M M z z 0 0 0 1 1 5 5 @ @ @ @ @ < <                               ",
"                                    W W I I & & & 0 0 j j j j M M %.%.%.-.-.m.m.6.6.$.$.$.,.,.M M z z 0 0 0 1 1 5 5 @ @ @ @ @ < <                               ",
"                                        ....: : Z u u u u 8 8 e e J J J 2.2.9.9.@.@.0.0.0.e.e.q.q.0.0.e.e.e.m m                                                 ",
"                                        ....: : Z u u u u 8 w e e J J J 2.2.9.9.@.@.0.0.0.e.e.q.q.0.0.e.e.e.m m                                                 ",
"                                        H.H.Z Z Z a a r r e e e e K K K L L M M m m r.r.r.u.u.i.i.s.i.d.d.d.;.;.                                                ",
"                                        H.H.Z Z Z a a r r e e e e K K K L L M M m m r.r.r.u.u.i.i.s.i.d.d.d.;.;.                                                ",
"                                        H.H.Z Z Z a a r r e e e e K K K L L M M m m r.r.r.u.u.i.i.s.s.d.d.d.;.;.                                                ",
"                                            y y y ) ) B B s s ; ; ; ; ; ; ; s s y.y.e.e.e.8.8.>.>.8.8.p.p.p.v.v.                                                ",
"                                            y y y ) ) B B s s ; ; ; ; ; ; ; s s y.y.e.e.e.8.8.>.>.8.w.p.p.p.v.v.                                                ",
"                                                  J.J.%.%.,.,.s s = = = = = q q M M N N N M M i i h h l l l >.>.                                                ",
"                                                  J.J.%.%.,.,.s s = = = = = q q M M N N N M M i i h h l l l >.$.                                                ",
"                                                  I.I.7.7.3.3.x x $ $ $ @ @ X X , , M M H L L 3 3 0 0 j j j 3 3                                                 ",
"                                                  I.I.7.7.3.3.x x $ $ $ @ @ X X , , H H H L L 3 3 0 0 j j j 3 3                                                 ",
"                                                  c.c.>.>.>.>.v v o o o o o 2 2 2 2 < < < < < 2 2 h h N N N                                                     ",
"                                                  c.c.>.>.>.>.v v o o o o o 2 2 2 2 < < < < < 2 2 h h N N N                                                     ",
"                                                  L.L.a a s s i i > > > < < q q O O @ @ @ @ @ 1 1 3 3 4 4 4                                                     ",
"                                                  L.L.a a s s i i > > > < < q q O O @ @ @ @ @ 1 1 3 3 4 4 4                                                     ",
"                                                  L.L.a a s s i i > > > < < q q O X @ @ @ @ @ 1 1 3 3 4 4 4                                                     ",
"                                                      C C d d o o X X X @ @ r r 1 1 @ @ @ @ @ 1 5                                                               ",
"                                                      C C d d o o X X X @ @ r r 1 1 @ @ @ @ @ 1 5                                                               ",
"                                                      d d a a @ @ 5 5 5 q q d d w w @ @ 1 @ @ 1 1                                                               ",
"                                                      d d a p @ @ 5 5 5 q q d d w w 1 1 1 @ @ 1 1                                                               ",
"                                                      { { T T < < d d d y y w w d d q q q q q q q                                                               ",
"                                                      { { T T < < d d d y y w w d d q q q q q q q                                                               ",
"                                                              Q Q 1 1 1 7 7 w w q q q q q q q X X                                                               ",
"                                                              Q Q 1 1 1 7 7 w w q q q q q q q X X                                                               ",
"                                                              Q Q 1 1 1 7 7 w w q q q q q q q X X                                                               ",
"                                                               . .y y y y y r r e e e e e e e                                                                   ",
"                                                               . .y y y y y r r q q e e e e r                                                                   ",
"                                                              I I 7 1 1 1 1 q q e q                                                                             ",
"                                                              I I 7 7 7 1 1 q q q q                                                                             ",
"                                                              - - 7 7 7 7 7                                                                                     ",
"                                                              - - 7 7 7 7 7                                                                                     ",
"                                                                                                                                                                ",
"                                                                                                                                                                ",
"                                                                                                                                                                ",
"                                                                                                                                                                ",
"                                                                                                                                                                ",
"                                                                                                                                                                ",
"                                                                                                                                                                "
};
