/* XPM */
static char *f0e5b07aca994ce8921eefd5402ab8f7drtxH3jgxyK2Q104[] = {
/* columns rows colors chars-per-pixel */
"76 96 205 2 ",
"   c None",
".  c #6A3317",
"X  c #65341D",
"o  c #6C341A",
"O  c #72351B",
"+  c #72391D",
"@  c #7B3C1C",
"#  c #7A3C16",
"$  c #633624",
"%  c #6C3621",
"&  c #673922",
"*  c #6D3B24",
"=  c #623A2C",
"-  c #6B3C2C",
";  c #743C23",
":  c #7C3E22",
">  c #723F29",
",  c #633D33",
"<  c #683F31",
"1  c #7C421D",
"2  c #6E422D",
"3  c #7C4225",
"4  c #73442C",
"5  c #7D4528",
"6  c #7C4C2D",
"7  c #774524",
"8  c #654336",
"9  c #724433",
"0  c #7C4C34",
"q  c #784F39",
"w  c #7C5135",
"e  c #823E15",
"r  c #853D1B",
"t  c #8E3F1B",
"y  c #833D23",
"u  c #883F24",
"i  c #91460C",
"p  c #8B4517",
"a  c #85411E",
"s  c #8B451C",
"d  c #8E491E",
"f  c #874919",
"g  c #914213",
"h  c #934C14",
"j  c #9A4C16",
"k  c #94451D",
"l  c #934B1B",
"z  c #994F19",
"x  c #9E521C",
"c  c #98541A",
"v  c #A64C19",
"b  c #A1531B",
"n  c #A55C1D",
"m  c #AB5D1D",
"M  c #A8571B",
"N  c #B2591A",
"B  c #AA601E",
"V  c #B3691B",
"C  c #B7641E",
"Z  c #844423",
"A  c #8A4523",
"S  c #864924",
"D  c #8C4A24",
"F  c #82452B",
"G  c #89442C",
"H  c #834C2C",
"J  c #8C4B2B",
"K  c #934C23",
"L  c #984F22",
"P  c #924E2B",
"I  c #9D4E2B",
"U  c #914528",
"Y  c #8B502C",
"T  c #955425",
"R  c #9D5325",
"E  c #94522B",
"W  c #9B552B",
"Q  c #9A592D",
"!  c #995A27",
"~  c #834B33",
"^  c #8C4D33",
"/  c #845334",
"(  c #875239",
")  c #8E5738",
"_  c #945333",
"`  c #9A5632",
"'  c #955A36",
"]  c #9C5B33",
"[  c #98563A",
"{  c #925D3B",
"}  c #9D5D39",
"|  c #AD4523",
" . c #A44625",
".. c #A35522",
"X. c #AE5721",
"o. c #A55A25",
"O. c #AA5D22",
"+. c #A25D2C",
"@. c #A15D34",
"#. c #A05F3F",
"$. c #9D6539",
"%. c #AB6326",
"&. c #AC642C",
"*. c #AC6A2C",
"=. c #A4662C",
"-. c #B26522",
";. c #B46B24",
":. c #BA6C2A",
">. c #BD6E25",
",. c #A46234",
"<. c #AC6333",
"1. c #A66934",
"2. c #AC6B35",
"3. c #A3643D",
"4. c #A9653B",
"5. c #AC6A3E",
"6. c #B56B35",
"7. c #BB6E33",
"8. c #B26E3B",
"9. c #B16739",
"0. c #AE753E",
"q. c #B3743D",
"w. c #BB7235",
"e. c #C57727",
"r. c #C5752A",
"t. c #C26F37",
"y. c #C17B33",
"u. c #C57934",
"i. c #8C5941",
"p. c #885D47",
"a. c #945D46",
"s. c #8C6442",
"d. c #896D4C",
"f. c #946444",
"g. c #996543",
"h. c #956D4E",
"j. c #9A6E4B",
"k. c #997346",
"l. c #8F6F50",
"z. c #977758",
"x. c #A36442",
"c. c #AD6C44",
"v. c #AB6D4A",
"b. c #A86945",
"n. c #A1724B",
"m. c #AB754D",
"M. c #AF7A4A",
"N. c #B67544",
"B. c #BA7643",
"V. c #B77941",
"C. c #BA7C4B",
"Z. c #B8774A",
"A. c #A06C51",
"S. c #A17354",
"D. c #AB7453",
"F. c #AB7B56",
"G. c #AF7E59",
"H. c #B47850",
"J. c #B57858",
"K. c #9D7D68",
"L. c #C47B41",
"P. c #C17C4B",
"I. c #C4822F",
"U. c #C88535",
"Y. c #D28733",
"T. c #D38B34",
"R. c #D28B39",
"E. c #DA9238",
"W. c #BF804A",
"Q. c #A9805D",
"!. c #B2855A",
"~. c #B68D5F",
"^. c #BA8057",
"/. c #B38460",
"(. c #B88963",
"). c #BB916B",
"_. c #AA8E71",
"`. c #AF9775",
"'. c #B89D7D",
"]. c #C48244",
"[. c #C5894D",
"{. c #D9954A",
"}. c #C68752",
"|. c #CC8D58",
" X c #C5925B",
".X c #DA975D",
"XX c #E49946",
"oX c #E09D52",
"OX c #E7A141",
"+X c #EBA857",
"@X c #CA9362",
"#X c #C9986E",
"$X c #DA9D64",
"%X c #C29673",
"&X c #D9A265",
"*X c #E7A161",
"=X c #F3B664",
"-X c #E4AC74",
";X c #E5AD7D",
":X c #EFB17A",
">X c #B59880",
",X c #BFA28A",
"<X c #D7AD89",
"1X c #DBB98B",
"2X c #F9CB99",
/* pixels */
"                                                                                                                                                        ",
"                                                                                                                                                        ",
"                                                                                                                                                        ",
"                                                                                                                                                        ",
"                                                                                                                                                        ",
"                                                                                                                                                        ",
"                                                                                                                                                        ",
"                                                                                                                                                        ",
"                                                                                                                                                        ",
"                                                                4 4 ) ) g.g.{ { {                                                                       ",
"                                                                4 4 ) ) g.g.{ { {                                                                       ",
"                                                            I I  . .v v t.t.X.X.X.O.O.N.N.%X%X                                                          ",
"                                                            I I  . .v v t.t.X.X.X.O.O.N.N.%X%X                                                          ",
"                                                        $ $  . .| | | | I I K K K W W <.<.8.8.3.3.j.j.                                                  ",
"                                                        $ $  . .| | | | I I K K K W W <.<.8.8.3.3.j.j.                                                  ",
"                                                        4 4 t t A A P P A A Q Q Q ] ] E E ,.,.L L  X Xj.j.                                              ",
"                                                        4 4 t t A s P P A A Q Q Q ] ] E E ,.,.L L  X Xj.j.                                              ",
"                                                        0 0 a a U J ] } } } P P P 4.4.5.5.K K ,.,.,.,.^.^.                                              ",
"                                                        0 0 a a U U } } } } P P P 4.4.5.5.K K ,.,.,.,.^.^.                                              ",
"                                                        F F Z Z Z Z A A E E ` ` ` @.@.N.N.T T }.}.V.V.T T @X@Xh.h.h.                                    ",
"                                                        F F y y Z Z A A E E ` ` ` @.@.N.N.T T }.}.V.V.T T @X@Xh.h.h.                                    ",
"                                                        H H : : P P Z Z P P d d d d d B.B.q.q.W.W.}.[.q.q.V.V.#X#X#X`.`.                                ",
"                                                        G G : : J J Z Z P P d d d d d B.B.q.q.W.W.[.[.q.q.V.V.#X#X#X`.`.                                ",
"                                                    8 8 F F @ @ Z Z b.c.P P d d d K K l l C.C.+.+.V.V.-X-X X X~.~.~.l.l.>X>X                            ",
"                                                    8 8 F F @ @ Z Z c.c.P P d d d K K l l C.C.+.+.V.V.-X-X X X~.~.~.l.l.>X>X                            ",
"                                                    8 8 F F @ @ Z Z c.c.P P d d d K K l l C.C.+.+.V.V.-X-X X X~.~.~.l.l.>X>X                            ",
"                                                    q q s s R R k k L L L L D D D D D K K ,.,.-X-X1.1.&X&XM.M.!.!.!.S.S.Q.Q.                            ",
"                                                    q q s s R R k k L L L L D D D D D K K ,.,.-X-X1.1.&X&XM.M.!.!.!.S.S.Q.Q.                            ",
"                                                    i.i.L L 9.9.l l K K 2X2X@X@X@X` ` b.b.` ` T T =.=.0.0.} } 3.3.3.) ) g.g.s.s.                        ",
"                                                    i.i.L L 9.9.d l K K 2X2X@X@X@X` ` b.b.` ` T T =.=.0.0.} } 3.3.3.) ) g.g.s.s.                        ",
"                                                    ( ( d d K K 3.3.D D @X@XE E E J J x.x.E E 5.5.*.*.0.0.Y Y (.(.(.Y Y g.g././.                        ",
"                                                    ( ( d d K K 3.3.D D @X@XE E ! J J x.x.E E 5.5.*.*.0.0.Y Y (.(.(.J J g.g././.                        ",
"                                                    F F A A ` ` a a D D $.$.;X;X;XP P J J 3.3.! ! &X&X1.1.} } J.J.J.b.b.J Y f.f.                        ",
"                                                    F F A A ` ` a a D D $.$.;X;X;XP P J J 3.3.! ! &X&X1.1.} } J.J.J.b.b.Y Y f.f.                        ",
"                                                    [ [ _ _ _ _ D D 3.3.Q Q C.C.C.` ` J G J J T T [.[.c c 5.5.[ [ [ E E ` ` m.m.                        ",
"                                                    [ [ _ _ _ _ D D 3.3.Q Q C.C.C.` ` J G J J T T [.[.c c 5.5.[ [ [ E E ` ` m.m.                        ",
"                                                    Y Y P P P P T T D D P P x.x.3.J J G G ^ ^ _ _ f f ! ! 2.2.Q Q Q D D x.b.$X$Xj.j.                    ",
"                                                    Y Y P P P P T T D D P P x.x.3.J J G G ^ ^ _ _ f f ! ! 2.2.Q Q Q D D b.b.$X$Xj.j.                    ",
"                                              4 4 4 Z Z J J J J W W Z.Z.D D &.&.&.l l J J F F ^ ^ D D h h *.*.+.+.+.G G H H M.M.G.G.z.z.                ",
"                                              4 4 4 Z Z J J J J W W Z.Z.D D &.&.&.l l J J F F ^ ^ D D h h *.*.+.+.+.G G H H M.M.G.G.z.z.                ",
"                                              4 4 4 Z Z J J J J W W Z.Z.D D &.&.&.l l J J F F ^ ^ D D h h *.*.+.+.+.G G J J M.M.G.G.z.z.                ",
"                                              / / / Z Z 4.4.J J W W P.P.].].{.{.{.R R # # @ @ E E ,.,.7.7.>.>.8.8.8.J J H H ' ' n.n._._.                ",
"                                              / / / s s 4.4.J J W W P.P.].].{.{.{.R R # # @ @ E E ,.,.7.7.>.>.8.8.8.Y J H H ' ' j.n._._.                ",
"                                              m.m.m.1 1 C.C._ _ c.c.|.|.y.y.;.;.;.g g j j ....%.%.6.6.m m r.r.z z z 5 5 6 6 H H j.j.'.'.                ",
"                                              m.m.m.1 1 Z.Z._ _ c.c.|.|.y.y.;.;.;.g g j j ....%.%.6.6.m m r.r.z z z 5 5 6 6 H H j.j.'.'.                ",
"                                          S.S.3.3.3.d d Z.Z.P P K K y.y.I.I.*X*X*XL.L.O.O.m m m m o.o.b b C C L.L.L.+ ; 7 7 / / ).).,X,X                ",
"                                          S.S.3.3.3.d d Z.Z.P P K l y.y.I.I.*X*X*XL.L.O.O.m m m m o.o.b b C C L.L.L.; ; 7 7 / / ).).,X,X                ",
"                                      - - F F 4.4.4.B.B.N.N.s d d d +.+.w.w.].].].j j ....i i R R W W b b N N 6.6.6.; ; 5 5 / / ).).K.K.                ",
"                                      - - F F 4.4.4.B.B.N.N.d d d d +.+.w.w.].].].j j ....i i R R W W b b N N 6.6.6.; ; 5 5 / / ).).K.K.                ",
"                                      ~ ~ F F ] ] ] B.B.W W e e D D r r L L R R R s s y y r r t t 8.8.........p p p 0 ~ g.g.F.F.<X<X                    ",
"                                      ~ ~ F F ] ] ] B.B.W W e e D D r r L L R R R s s y y r r t t 8.8.........p p p ~ ~ g.g.F.F.<X<X                    ",
"                                  0 0 6 6 5 5 A A A @.@.,.,.a a @ @ u u a a L L K s s u u s s +.+.h h 6.6.W W # # # 0 0 { { !.!.S.S.                    ",
"                                  0 0 6 6 5 5 A A A @.@.,.,.a a @ @ u u a a L L K s s u u s s +.+.h h 6.6.W W # # # 0 0 { { /./.S.S.                    ",
"                                  9 9 a.a.> > Z Z Z A A ,.,.] ] s s %.%.m m n n n %.%.D D |.|.}.}.B.B.5.5.Z Z Z Z Z / / ' ' D.D.s.s.                    ",
"                                  9 9 a.a.> > Z Z Z A A ,.,.] ] s s %.%.m m n n n %.%.D D |.|.}.}.B.B.5.5.Z Z Z Z Z / / ' ' D.D.s.s.                    ",
"                                  - - ( ( > > + + + F F S S D D +.+.:.:.Y.Y.T.T.T.R.R.:.:.O.O.s s S S 5 5 : : v.v.v.6 6 { { m.D.d.d.                    ",
"                                  - - ( ( > > + + + F F D D D D +.+.:.:.Y.Y.T.T.T.Y.Y.:.:.O.O.s s S S 5 5 : ; v.v.v.6 6 { { m.m.d.d.                    ",
"                                  - - ( ( > > + + + F F D D D D +.+.:.:.Y.Y.T.T.T.Y.R.:.:.O.O.s s S S 5 6 : : v.v.v.6 6 { { m.m.d.d.                    ",
"                                  < < 2 2 X X X X X 4 4 F F 3 3 E E z z XXXXE.E.E.r.r.M M b b j j H J H H S S ` ` ` H H J.J.G.G.                        ",
"                                  < < 2 2 X X X X X 4 4 F F 3 3 E E z z XXXXE.E.E.r.r.M M b b j j J J H H S F ` ` ` H H J.J.G.G.                        ",
"                                  = = = = & & X X X X X 4 4 * * ' ' n n u.u.OXOXOXXXXXj j C C t.w.E E } } 1 1 1.1.1.(.(.!.!.z.z.                        ",
"                                  = = = = & & X X X & X 4 4 * * ' ' n n u.u.OXOXOXXXXXj j C C t.w.E E } } 3 1 1.1.1.(.(.!.!.z.z.                        ",
"                                  8 8 - - & & X X X i.i.* * & & 3 3 z z j j -.-.-.b b O.O.Y.Y.;.;.Q Q E E # # ,.,.,.1X1XG.G.h.j.                        ",
"                                  8 8 - - & & X X X i.i.* * X & 3 3 z z j j -.-.-.b b O.O.Y.Y.;.;.Q Q E E # # ,.,.,.1X1XG.G.j.j.                        ",
"                                  , , 9 9 % % X X X & & * * 4 4 3 3 E E ....b b b k k -.-.-.-.7.7.R R 5.5.@.@.H.H.H.k.k.n.n.w w                         ",
"                                  , , 9 9 % % X X X & & * * 4 4 3 3 E E ....b b b k k -.-.-.-.7.7.R R 5.5.@.@.H.H.H.k.k.n.n.w w                         ",
"                                  , , - - % % X X X X X J J _ _ + + : : @ @ d d d W W p p j j x x L L ].].+.+.] ] ] $.$.m.m.                            ",
"                                  , , - - % % X X X X X J J _ _ + + : : @ @ d d d W W p p j j x x L L ].].+.+.] ] ] $.$.m.m.                            ",
"                                  8 8 - - * * * * * ; ; L L K K J J : : + + r r r +.+.l l y.y.R.R.V V oXoX;X;X X X X,.,.' '                             ",
"                                  8 8 - - * * * * * ; ; L L K K J J : : + + r r r +.+.l l y.y.R.R.V V oXoX;X;X X X X,.,.' '                             ",
"                                      ; ; > * X X X o o K K K K D A ; ; o o @ @ @ E E ,.,.U.U.R.R.e.e.+X+XW W :X:X:Xx x E E                             ",
"                                      ; ; > * X X X o o K K K K D D ; ; o o @ @ @ E E ,.,.U.U.R.R.e.e.+X+XW W :X:X:Xx x E E                             ",
"                                      ; ; > > X X X O O K K K K D D ; ; o o @ @ @ E E ,.,.U.U.R.R.e.e.+X+XW W :X:X:Xx x E E                             ",
"                                      3 3 3 3 % % % + + K K 5.5.#.#.. . . . + + + o o K K -.-.V V T.T.+X+Xs s $X$X$X....E E                             ",
"                                      3 3 3 3 % % % + + K K 5.5.#.#.. . . . + + + o O K K -.-.V V T.T.+X+Xs s $X.X.X....E E                             ",
"                                      b.b.Q Q J J J @ @ e e J J + + o o o o . . . + + A A j j :.:.T.T.=X=Xe e .X.X.Xg g S S                             ",
"                                      b.b.Q Q J J J @ @ e e J J + + o o o o . . . + + A A j j :.:.T.T.=X=Xe e .X.X.Xg g S S                             ",
"                                      g.g.Y Y x.x.x.G G x.x.; ; ; ; + + + + + + + : : ] ] %.%.h h o.o.<.<.s s l l l k k [ [                             ",
"                                      g.g.Y Y x.x.x.G G x.x.; ; ; ; + + + + + + + : : ] ] %.%.h h o.o.<.<.s s l l l k k [ [                             ",
"                                      p.p.f.f.A.A.A.~ ~ ) ) D.D.5 5 G G y y y y y y y W W %.%.&.&.4.4.A A U U p k k k k G G                             ",
"                                      p.p.f.f.A.A.A.~ ~ ) ) D.D.5 5 G G y y y y y y y W W %.%.&.&.4.4.A A U U s s s k k G G                             ",
"                                                        p.p./ / x.x.Z Z Z Z y y y G G d d &.&.L L e e E E r r r r r Z Z * *                             ",
"                                                        p.p./ / x.x.Z Z Z Z y y y G G d d &.&.L L e e E E r r r r r Z Z * *                             ",
"                                                            j.j.] ] @.@.K D D D D Z Z P P _ _ O O F F ~ ~ 2 2                                           ",
"                                                            j.j.] ] @.@.K K D D D Z Z P P _ ` O O F F ~ ~ 2 2                                           ",
"                                                            k.k.1.1.,.,.P P A A Z y y + + o o $ $                                                       ",
"                                                            k.k.1.1.,.,.P P A A Z y y + + o o $ $                                                       ",
"                                                                s.s.{ { h.h.2 2 2                                                                       ",
"                                                                s.s.{ { h.h.2 2 2                                                                       ",
"                                                                s.s.{ { h.h.2 2 2                                                                       ",
"                                                                                                                                                        ",
"                                                                                                                                                        ",
"                                                                                                                                                        ",
"                                                                                                                                                        ",
"                                                                                                                                                        ",
"                                                                                                                                                        "
};
