/* XPM */
static char *dc11db2f480e4d9fa32bb88ff4baa02bbJ94avXZi3fBk4II[] = {
/* columns rows colors chars-per-pixel */
"73 96 249 2 ",
"   c None",
".  c #180903",
"X  c #180F0C",
"o  c #240F06",
"O  c #241104",
"+  c #28160B",
"@  c #2E1A0D",
"#  c #261409",
"$  c #341A0A",
"%  c #271B16",
"&  c #37110E",
"*  c #133D18",
"=  c #37240D",
"-  c #2D2016",
";  c #2C231D",
":  c #272418",
">  c #3B2213",
",  c #31231B",
"<  c #392617",
"1  c #292224",
"2  c #3A2C24",
"3  c #3C3328",
"4  c #281F2C",
"5  c #43230A",
"6  c #422514",
"7  c #442B15",
"8  c #432C1B",
"9  c #492D1B",
"0  c #472C15",
"q  c #4C321D",
"w  c #4A3317",
"e  c #52351C",
"r  c #56391A",
"t  c #543213",
"y  c #613A14",
"u  c #4C3423",
"i  c #4D3A23",
"p  c #463528",
"a  c #533522",
"s  c #553A24",
"d  c #5B3B25",
"f  c #543B2A",
"g  c #5C3D2A",
"h  c #5A3723",
"j  c #453B36",
"k  c #553F33",
"l  c #4B2B24",
"z  c #633F2B",
"x  c #643F25",
"c  c #663F33",
"v  c #471C16",
"b  c #5A411F",
"n  c #6C4C19",
"m  c #5D4326",
"M  c #5B422C",
"N  c #58452A",
"B  c #4D4536",
"V  c #5D4333",
"C  c #5A4838",
"Z  c #5A5038",
"A  c #654426",
"S  c #64432C",
"D  c #6A452D",
"F  c #644B2D",
"G  c #6C4A2B",
"H  c #654A24",
"J  c #744B2B",
"K  c #6A542B",
"L  c #72532C",
"P  c #7B5B25",
"I  c #634532",
"U  c #644A33",
"Y  c #6B4B34",
"T  c #63493A",
"R  c #6B4D3A",
"E  c #6B4632",
"W  c #724C33",
"Q  c #794C34",
"!  c #714E39",
"~  c #744A34",
"^  c #6D5333",
"/  c #6C523C",
"(  c #67553B",
")  c #735534",
"_  c #7B5434",
"`  c #755932",
"'  c #7B5C36",
"]  c #73533B",
"[  c #7D563C",
"{  c #7C5C3C",
"}  c #75593A",
"|  c #7D6139",
" . c #47603D",
".. c #13366E",
"X. c #1A2D4E",
"o. c #4A3D44",
"O. c #544F44",
"+. c #674F43",
"@. c #685545",
"#. c #735543",
"$. c #765A42",
"%. c #7B5B43",
"&. c #7A5A47",
"*. c #6A5D54",
"=. c #745B59",
"-. c #7D6348",
";. c #796859",
":. c #7E7159",
">. c #6A6563",
",. c #876B13",
"<. c #82553B",
"1. c #825B3D",
"2. c #8A5B3C",
"3. c #855535",
"4. c #925D3D",
"5. c #845131",
"6. c #8C653C",
"7. c #846438",
"8. c #946B3C",
"9. c #98773E",
"0. c #845D44",
"q. c #8A5C42",
"w. c #845E4B",
"e. c #915F40",
"r. c #846343",
"t. c #8B6343",
"y. c #8A6A42",
"u. c #82654B",
"i. c #8C644B",
"p. c #8C6B4B",
"a. c #846B4B",
"s. c #936443",
"d. c #956B44",
"f. c #946A4C",
"g. c #9A6C4B",
"h. c #976847",
"j. c #947444",
"k. c #9B744B",
"l. c #9B7C4D",
"z. c #977548",
"x. c #8A6C54",
"c. c #876957",
"v. c #966E52",
"b. c #8A755A",
"n. c #9B7355",
"m. c #9C7B5C",
"M. c #967656",
"N. c #8B784B",
"B. c #A3744D",
"V. c #A4794B",
"C. c #A37A54",
"Z. c #A97B53",
"A. c #A37956",
"S. c #A36F4F",
"D. c #877566",
"F. c #987B66",
"G. c #827C70",
"H. c #A47D62",
"J. c #709676",
"K. c #B09D38",
"L. c #C2BD03",
"P. c #DADA28",
"I. c #D3CE23",
"U. c #E4D928",
"Y. c #E6E820",
"T. c #CBC703",
"R. c #9E8252",
"E. c #A8884A",
"W. c #A58453",
"Q. c #AC8D5C",
"!. c #A98659",
"~. c #B28E5C",
"^. c #B49659",
"/. c #9C8163",
"(. c #938466",
"). c #998676",
"_. c #968D78",
"`. c #A3866C",
"'. c #A78866",
"]. c #B48D64",
"[. c #B08D6E",
"{. c #AD9368",
"}. c #B59564",
"|. c #B89569",
" X c #A48C75",
".X c #A1927A",
"XX c #AB9477",
"oX c #B69877",
"OX c #B18F70",
"+X c #BBA678",
"@X c #BAA36C",
"#X c #C2BE43",
"$X c #C49E6F",
"%X c #C3A573",
"&X c #CAA977",
"*X c #CBAF74",
"=X c #E1DA43",
"-X c #D3C86E",
";X c #EDE873",
":X c #E6E95D",
">X c #25679C",
",X c #798A9F",
"<X c #94908A",
"1X c #A99887",
"2X c #B49B83",
"3X c #B99B83",
"4X c #A58D81",
"5X c #B7A68A",
"6X c #BCAB9D",
"7X c #BBA897",
"8X c #B4A68E",
"9X c #BAB1AA",
"0X c #C5AA89",
"qX c #D2B68A",
"wX c #C9B498",
"eX c #D7B996",
"rX c #C9B28E",
"tX c #C9B9A8",
"yX c #D3BCA2",
"uX c #C5BFBA",
"iX c #D7C089",
"pX c #DCC591",
"aX c #D9C599",
"sX c #E2CC9C",
"dX c #F5F385",
"fX c #E9EA87",
"gX c #DCC6A7",
"hX c #D8CAB7",
"jX c #DDD5BB",
"kX c #CCC3BA",
"lX c #E4CBA4",
"zX c #E7D9B8",
"xX c #F2D6B3",
"cX c #F0D8AB",
"vX c #F2E5BD",
"bX c #A0C3DA",
"nX c #D8D1C7",
"mX c #E9D9CA",
"MX c #E5DCD4",
"NX c #F0DFC2",
"BX c #F3E3C1",
"VX c #F3E7CB",
"CX c #F4EEDA",
"ZX c #F7F1DC",
"AX c #F6EDCD",
"SX c #F2EDE9",
"DX c #F5F2E5",
"FX c #FAF7E5",
"GX c #FCFAF4",
/* pixels */
"                                                                                                                                                  ",
"                                                                                                                                                  ",
"                                                                                                                                                  ",
"                                                                                                                                                  ",
"                                                                                                                                                  ",
"                                                                                                                                                  ",
"                                                                                                                                                  ",
"                                                                  ;.O.                                                                            ",
"                                                  *.            &.x.u                                                                             ",
"                                                ( %.T           oXw.V           F.F.u                                                             ",
"                                                !.'./ X X     R x.# G           [.'.&.                                                            ",
"                                                '.x./ - -     o gXx.f         2 m.s p.                                                            ",
"                                                '.x./ - -     o gXx.f         2 m.s p.                                                            ",
"                                              g u.m.M # #   I r.f.g (         m.&.v.$.                                                            ",
"                                              u H $.f - ,   M %.] R >         H.#.g.U                                                             ",
"                                              e 1.U s ; ;   < g.s.@.p       8 n.U !.@.                                                            ",
"                                    p R R 2   W 0XR V % %   '.Y '.t.>       ! r.S &X                                                              ",
"                                    ZX%.%.<   zXlX9 M j j   #.%.] |.@       eX2.u -.                                                              ",
"                                    Y T T >   3XoX@ s B B   VXD < }.$       rX|.g f.                                                              ",
"                                    ! n.n.<   6 $ u U 3 3   d. Xb.[ $       xXhX|.0.                                                              ",
"                                    ! n.n.<   6 $ u U 3 3   d. Xb.[ $       xXhX|.0.                                                              ",
"                                  q 2.9 9 -   %X7Xg s , ,   g.[.M.].O     k #.U p.x.                                                              ",
"                                  *.3.R Y @   wXhX{ g + +   `.2XV g.+     d jX4X|.u.                                                              ",
"                                    6.I I +   2X#.> u . .   ).`.tXqXO     h zX).'.]                                                               ",
"                                    0XY Y @   w.jX).8 O O C MXm.X f.O     v.1XwXn.#.                                                              ",
"                                  j GX> > >   O ZXGXu @ @ k 5XXXwXY .     '.VXVXf.C                       + i                                     ",
"                                    DX6 6 6 1 c.DXDXf @ @   0Xd o q .     u.`.d 0 $ @.                - - &.d.C.                                  ",
"                                    yXmXmX7 . U zX'.6 + + % #.D R Y F / / %.I 8 s oX+.              3 M.M.%.g.h.x.                                ",
"                                    yXmXmX7 . U zX'.6 + + % #.D R Y I / / $.I 8 s oX+.              3 M.M.%.g.h.x.                                ",
"                                  ( 0XDXDXXX(.tXT D XXn.n.eXDX..o.R XXi.i.- X a n.m.f             3 u.b.b.R y.S.                                  ",
"                                  '.gXCXCXnXZXnX> t.U wXwX< j X.>X9X1.7 7 1 o.j m.|.a             p /.I I Q.v.$.                                  ",
"                                  A 8.,.,.gXgXnX& o , 1X1X% ,X..>X).E > > % <X1 mXC.u           % u #.R R B.i.                                    ",
"                                  e 9.#X#Xy zX=.l & + tXtX*.1XbX>XwXM 0.1.% 4 % %.f.u         ; / { a '.'.oXT                                     ",
"                                  f n -X-X!.aXnXv eX= Z Z DX@ M p s 0Xa a R l d _ n.8       2 p a p.< t.t.`.                                      ",
"                                  C z hXhX0Xu.u #.0XgXmXmXtX%X_ A h g a a f a h 2.W.u     B 8 ! q m m.%.0.V                                       ",
"                                    E s.s.qXqXNX0XVXD.8X8XrXU g D I g d d a q 9 ! &XA T T %.R W }.A.n.#.#.                                        ",
"                                    Y s.s.qXqXNX0XVXD.8X8XrXU g D I g d d a q q ! &XA T T %.R W }.C.n.#.#.                                        ",
"                                    Y 5.5.%X%XeXyXgXvXqXqXL !.m s /.] S S a s q d 0.[ / / I 9 0.!.oXA.c.c.                                        ",
"                                    E 4.4.Z.&X>  XjX;XfXfXL.n e XXU m g g s a 9 s a R u u u 7 D '.p.F.c.c.                                        ",
"                                    I s.s.|.xX1X5XjXfXdXdXI.;Xl.b ] s s s d a f %.0 U +./ w u.d k._ w.j j                                         ",
"                                    V q.q.~.zXB i .X;XdXdXP.U.H s k w g g g a wXO 8 = p p 7 $ w.%X[ F.                                            ",
"                                    @.W W V.b.wXgX+X:XP.P.  U.' `.oX] I I g q 8 q a c.q q uXe d i  .<X                                            ",
"                                      d d _ $XlX{.BXP.Y.Y.T.,.| ).{ s 9 8 s 7 $.f a > 9 9 u I _ O.J.J.                                            ",
"                                      M M <.J N.VXF ( =X=XK.r.m . S N U U M I e s q u d d S R [ : *                                               ",
"                                      M M <.J N.VXF ( =X=XK.7.m . F N F I M I e s q u d d S R [ : *                                               ",
"                                      C C Q 3.a.w qXw pXpXQ.^ ).s M ( Y Y E ] D $.R R I I %.I g <X                                                ",
"                                          ! B.C.-.b.b.1X1X.XR 7 d m ] ] ] D ! i.# [ ! ] ] g I O.                                                  ",
"                                          f 5.4.XXV.-.%X%XpXG ^ z.} S a a S W t.I o g g M V C                                                     ",
"                                          V 2.3.5.$X/.Q.Q.%Xm ;.t.S ! R R I M q I I f T T C                                                       ",
"                                          I S.xXBXZX.X< < = @ { _ g d q q a f i OXF.,                                                             ",
"                                          A B.eX%X6.-.Z Z k i } d a a R R O i tX/.S tX                                                            ",
"                                          b.Y <.G -.. BXBXi /.F d T p m m s s T H.] hXuXuX                                                        ",
"                                          b.G 1.G -.. BXBXi /.F d T p m m s s T H.] hXuXuX                                                        ",
"                                          vX~.C.k.= lX;.;.U 2 s = s M N N s 7 m %.%.2XMXMX                                                        ",
"                                      L L 1X) oXiXlXVX:.:.p Y S s N s i i m w F t H.T j j                                                         ",
"                                      U U +X5 *X0XBXlXjXjXM b.9 | s w N N / 6.wX/ !.F.hXhX                                                        ",
"                                      D D +X} pXpX&X%XcXcXe r.A 0 F s 8 7 H oXq [ g.n.).).9X                                                      ",
"                                      I I E iXsXK 7XZ SXSXFX^.x.Y ^ -.q q @Xg G [ s.0.F.F.9X                                                      ",
"                                      R R D M.K ( VXFXmXmXBXj.7.K O t { { } g ! f.h.f.D.D.tX                                                      ",
"                                      ! ! {.}.vXAX(.CXB B aXgXj.5XM U { { I ` S <.g.].f f tX                                                      ",
"                                      ! ! {.}.vXAX(.CXB B aXgXj.5XM U { { V ` S <.g.].f f tX                                                      ",
"                                      y.y.F G zXzXvXCX8X8X{.e y.nX( M w w oXw v.i.) {.&.%.wXkX                                                    ",
"                                    *.Y U <.) lXVX;.VX; ; zX6 0 V 5XQ.m m q s > f.A.!.'.'.oXG.                                                    ",
"                                    ).D D 2.B.|.N G.>.<X<Xp < I = sXr u u q s e G }.!.e e 5X4X                                                    ",
"                                    $.D D 4.V.R.gXgXDX6X6X{.@ M b.L w u u s a s ! ].!.n.n.).1XD.                                                  ",
"                                    +.z z e.V.iXpX*XVX7.7.l.o b H m S Y Y s d d 1.W.~.f.f.m XX7X                                                  ",
"                                    T D D e.Z.*X*X%X XR.R.l.F N '.F F p.p.s s D D B.~.g.g.[.F.7X                                                  ",
"                                    T z z 2.y *XqX7.t j.j.W.L 2X` F ^ e e q a S x s.].s.s.5 `.1X                                                  ",
"                                    T z z 2.y *XqX7.t j.j.W.L 2X` F ^ e e q a S x s.].s.s.5 `.1X                                                  ",
"                                  ;.C D D 5.~.E.0 n {.7.7.Q.2 U A 8 y.^ ^ 1.s D A 2.B.h.h.i.F.F.D.                                                ",
"                                  V V z z Q ^.P '.P { !.!.m.) } H &.` ) ^ { f D ] Q g.Z.Z.t.H.F.).                                                ",
"                                  4XV D D Q E.l.j.{.5Xj.j.f.9 ) F ) L ) ) A D Y D 2.B.g.g.t.[ c.F.                                                ",
"                                  6Xg D D r 9.!.6.E.t }.}.j.G Y m 8.} ` ` ) t.z Q 3.W.k.k.q.i.x. X                                                ",
"                                  :.d D D 6.E.E.E.0Xr l.l.d.w M m 6.$.` ` ) f.S W <.B.Z.Z.q.Y &.1X                                                ",
"                                  @.g W W V.E.}.!.y.) | | _ F ^ Y { + ` ` ^ A D D W h.Z.Z.2.0.&.6X                                                ",
"                                  T d Q Q 9.E.u.^.7 M.G G 7.) tXF ' $.j.j.) Y Y D 2.d.B.B.s.i.`.7X9X                                              ",
"                                  T g Q Q 9.E.u.^.7 M.G G 7.) tXF ' $.j.j.) Y Y D 2.d.B.B.e.i.`.7X9X                                              ",
"                                  V z ] ] 9.E.$ $X1.S m.M.' ) ) F ) r l.k.) G 1.R W 8.s.s.s.].3X2X6X                                              ",
"                                O.V z r r 8.6.r 7.z.) k.k.y.rX' w r.{ W.W.F Y n.Y 1.3.B.B.|.0Xv.`.kX9X                                            ",
"                                u T 0.q.q.XXiX3.'.wXXX_ _ y.6.%.j.|.+ e e #.) ) W 1.J _ _ qXn.x.gX_.                                              ",
"                                D.M c $X$X' W.OX+XL G = = = ( r.d.y.) Y Y ^ i Y a d n.W.W.}.|.m.                                                  ",
"                                  D ~ Q Q Q ) u R 0X0X'.'.r.) ' Q.F 0.m m U U a ] Y 2.Z.Z.~.[                                                     ",
"                                    G 5.5.Q <.q.&.] s ^ ^ U b.V ] [ ] S S u.I S Y D 1.C.C.N                                                       ",
"                                      .X.X~ <.Q W 0.Y w.0.%.0.{ 0.[ [ <.<.[ ] D ! ) `.                                                            ",
"                                      .X.X~ <.Q W 0.Y 0.0.%.0.{ 0.[ [ <.<.[ ] D ! ) `.                                                            ",
"                                            hXf.f.[.f.0.0.[ 0.f.q.t.f.q.q.s.<.A 2X                                                                ",
"                                                  &.;.S S $ F.a yXM.0X^ ^ V                                                                       ",
"                                                                                                                                                  ",
"                                                                                                                                                  ",
"                                                                                                                                                  ",
"                                                                                                                                                  ",
"                                                                                                                                                  ",
"                                                                                                                                                  ",
"                                                                                                                                                  ",
"                                                                                                                                                  ",
"                                                                                                                                                  "
};
